<mxfile host="app.diagrams.net" modified="2024-08-11T15:59:08.724Z" agent="Mozilla/5.0 (Macintosh; Intel Mac OS X 10_15_7) AppleWebKit/537.36 (KHTML, like Gecko) Chrome/126.0.0.0 Safari/537.36" etag="4j_VDJnHdB-bo6nZgE5r" version="23.1.6" type="github">
  <diagram name="第 1 页" id="OlGQXTvJdLAxzKxSca79">
    <mxGraphModel dx="1306" dy="826" grid="1" gridSize="10" guides="1" tooltips="1" connect="1" arrows="0" fold="1" page="1" pageScale="1" pageWidth="827" pageHeight="1169" math="0" shadow="0">
      <root>
        <mxCell id="0" />
        <mxCell id="1" parent="0" />
        <mxCell id="eNl5kDHjrdtoNyzwESEn-1" value="" style="rounded=0;whiteSpace=wrap;html=1;fillColor=#f5f5f5;fontColor=#333333;strokeColor=#666666;" parent="1" vertex="1">
          <mxGeometry x="260" y="290" width="400" height="310" as="geometry" />
        </mxCell>
        <mxCell id="eNl5kDHjrdtoNyzwESEn-2" value="" style="rounded=1;whiteSpace=wrap;html=1;fillColor=#e1d5e7;strokeColor=#9673a6;" parent="1" vertex="1">
          <mxGeometry x="410" y="370" width="200" height="230" as="geometry" />
        </mxCell>
        <mxCell id="eNl5kDHjrdtoNyzwESEn-3" value="" style="rounded=1;whiteSpace=wrap;html=1;fillColor=#dae8fc;strokeColor=#6c8ebf;" parent="1" vertex="1">
          <mxGeometry x="260" y="455" width="150" height="145" as="geometry" />
        </mxCell>
        <mxCell id="eNl5kDHjrdtoNyzwESEn-4" value="" style="rounded=0;whiteSpace=wrap;html=1;fillColor=#f8cecc;strokeColor=#b85450;" parent="1" vertex="1">
          <mxGeometry x="290" y="570" width="90" height="30" as="geometry" />
        </mxCell>
        <mxCell id="BaSuKIK_yy7KeZigRI48-2" value="" style="rounded=0;whiteSpace=wrap;html=1;" vertex="1" parent="1">
          <mxGeometry x="270" y="650" width="120" height="60" as="geometry" />
        </mxCell>
        <mxCell id="BaSuKIK_yy7KeZigRI48-3" value="" style="rounded=0;whiteSpace=wrap;html=1;" vertex="1" parent="1">
          <mxGeometry x="390" y="650" width="60" height="180" as="geometry" />
        </mxCell>
        <mxCell id="BaSuKIK_yy7KeZigRI48-4" value="" style="rounded=0;whiteSpace=wrap;html=1;" vertex="1" parent="1">
          <mxGeometry x="510" y="650" width="120" height="60" as="geometry" />
        </mxCell>
        <mxCell id="BaSuKIK_yy7KeZigRI48-5" value="" style="rounded=0;whiteSpace=wrap;html=1;" vertex="1" parent="1">
          <mxGeometry x="510" y="710" width="120" height="60" as="geometry" />
        </mxCell>
        <mxCell id="BaSuKIK_yy7KeZigRI48-6" value="" style="rounded=0;whiteSpace=wrap;html=1;" vertex="1" parent="1">
          <mxGeometry x="510" y="770" width="120" height="60" as="geometry" />
        </mxCell>
        <mxCell id="BaSuKIK_yy7KeZigRI48-7" value="" style="rounded=0;whiteSpace=wrap;html=1;" vertex="1" parent="1">
          <mxGeometry x="270" y="710" width="60" height="120" as="geometry" />
        </mxCell>
        <mxCell id="BaSuKIK_yy7KeZigRI48-8" value="" style="rounded=0;whiteSpace=wrap;html=1;" vertex="1" parent="1">
          <mxGeometry x="330" y="710" width="60" height="120" as="geometry" />
        </mxCell>
        <mxCell id="BaSuKIK_yy7KeZigRI48-9" value="" style="rounded=0;whiteSpace=wrap;html=1;" vertex="1" parent="1">
          <mxGeometry x="450" y="650" width="60" height="180" as="geometry" />
        </mxCell>
      </root>
    </mxGraphModel>
  </diagram>
</mxfile>
